<svg width="170" height="170" viewBox="0 0 170 170" fill="none" xmlns="http://www.w3.org/2000/svg">
<circle cx="85" cy="85" r="85" fill="#434342"/>
<path d="M150 85C150 93.5359 148.319 101.988 145.052 109.874C141.786 117.761 136.998 124.926 130.962 130.962C124.926 136.998 117.761 141.786 109.874 145.052C101.988 148.319 93.5359 150 85 150C76.4641 150 68.0117 148.319 60.1256 145.052C52.2394 141.786 45.0739 136.998 39.0381 130.962C33.0022 124.926 28.2144 117.761 24.9478 109.874C21.6813 101.988 20 93.5359 20 85L85 85H150Z" fill="white"/>
<path d="M150 85C150 76.4641 148.319 68.0117 145.052 60.1256C141.786 52.2394 136.998 45.0739 130.962 39.0381C124.926 33.0023 117.761 28.2144 109.874 24.9478C101.988 21.6813 93.5359 20 85 20C76.4641 20 68.0117 21.6813 60.1256 24.9478C52.2394 28.2144 45.0739 33.0023 39.0381 39.0381C33.0022 45.0739 28.2144 52.2394 24.9478 60.1256C21.6813 68.0117 20 76.4641 20 85L85 85H150Z" fill="#C00C0F"/>
<rect x="6" y="71" width="158" height="29" fill="#434342"/>
<path d="M122 85.5C122 106.211 105.211 123 84.5 123C63.7893 123 47 106.211 47 85.5C47 64.7893 63.7893 48 84.5 48C105.211 48 122 64.7893 122 85.5Z" fill="#434342"/>
<circle cx="85" cy="85" r="25" fill="#C00C0F"/>
</svg>
